<svg xmlns="http://www.w3.org/2000/svg" xmlns:xlink="http://www.w3.org/1999/xlink" width="500" zoomAndPan="magnify" viewBox="0 0 375 374.999991" height="500" preserveAspectRatio="xMidYMid meet" version="1.0"><defs><g/><clipPath id="75e6b9af0b"><path d="M 63.976562 192.863281 L 305.714844 192.863281 L 305.714844 220.550781 L 63.976562 220.550781 Z M 63.976562 192.863281 " clip-rule="nonzero"/></clipPath><clipPath id="21c3822315"><path d="M 77.824219 192.863281 L 291.792969 192.863281 C 295.464844 192.863281 298.984375 194.320312 301.582031 196.917969 C 304.179688 199.515625 305.636719 203.035156 305.636719 206.707031 C 305.636719 210.378906 304.179688 213.898438 301.582031 216.496094 C 298.984375 219.09375 295.464844 220.550781 291.792969 220.550781 L 77.824219 220.550781 C 74.152344 220.550781 70.628906 219.09375 68.03125 216.496094 C 65.4375 213.898438 63.976562 210.378906 63.976562 206.707031 C 63.976562 203.035156 65.4375 199.515625 68.03125 196.917969 C 70.628906 194.320312 74.152344 192.863281 77.824219 192.863281 Z M 77.824219 192.863281 " clip-rule="nonzero"/></clipPath></defs><path stroke-linecap="butt" transform="matrix(0.796661, 0, 0, 0.796661, 96.637455, -14.993588)" fill="none" stroke-linejoin="miter" d="M 126.29284 108.241647 C 121.70337 111.335616 117.48655 113.953967 113.642379 116.101604 C 109.798208 118.24924 106.179588 120.019324 102.786519 121.416758 C 102.286384 139.485343 101.859799 155.656357 101.511666 169.929803 C 101.163533 184.208153 100.864433 196.858613 100.614366 207.890991 C 100.364299 218.918466 100.163265 228.455345 100.016166 236.491819 C 99.864164 244.523391 99.741582 251.387982 99.638614 257.080689 C 99.339514 270.353866 99.241448 279.439642 99.339514 284.328212 C 99.241448 287.52515 98.868799 291.692937 98.216663 296.831574 C 97.56943 301.975114 96.294577 307.687434 94.401911 313.978341 C 92.504342 320.269249 89.856572 326.878869 86.463502 333.817009 C 83.070433 340.755149 78.652578 347.570708 73.209938 354.25878 C 67.772202 360.946853 61.133162 367.28189 53.297721 373.273697 C 45.462281 379.265505 36.199987 384.453174 25.520644 388.846512 C 33.007952 384.855243 39.421441 380.089256 44.761112 374.54855 C 50.100783 369.007844 54.59709 363.016037 58.240227 356.578032 C 61.883363 350.140026 64.825331 343.427437 67.071033 336.440264 C 69.316735 329.453091 71.018173 322.490434 72.16554 315.552294 C 73.312907 308.614154 74.087625 301.901565 74.484791 295.409623 C 74.881957 288.922584 75.082991 282.984713 75.082991 277.591106 L 75.082991 126.359264 C 71.989022 126.658364 68.223303 127.05553 63.780932 127.555664 C 59.338561 128.055799 54.322507 128.703031 48.727865 129.502266 C 54.121472 125.108928 58.985525 121.764891 63.329831 119.470157 C 67.674136 117.175422 71.390822 115.478887 74.484791 114.380553 C 78.078895 113.184153 81.27093 112.482984 84.065799 112.281949 C 87.561837 112.384918 91.430524 112.330982 95.671861 112.134851 C 99.913197 111.933816 104.007435 111.659233 107.949672 111.3111 C 111.891908 110.962967 115.510529 110.511865 118.805532 109.962698 C 122.100536 109.413531 124.596305 108.839847 126.29284 108.241647 Z M 126.29284 108.241647 " stroke="#ffffff" stroke-width="23.000025" stroke-opacity="1" stroke-miterlimit="4"/><g fill="#000000" fill-opacity="1"><g transform="translate(129.375232, 247.904451)"><g><path d="M 67.875 -176.65625 C 64.21875 -174.195312 60.859375 -172.109375 57.796875 -170.390625 C 54.734375 -168.679688 51.847656 -167.273438 49.140625 -166.171875 C 48.742188 -151.773438 48.40625 -138.890625 48.125 -127.515625 C 47.851562 -116.140625 47.617188 -106.054688 47.421875 -97.265625 C 47.222656 -88.484375 47.0625 -80.890625 46.9375 -74.484375 C 46.820312 -68.085938 46.722656 -62.625 46.640625 -58.09375 C 46.398438 -47.519531 46.320312 -40.28125 46.40625 -36.375 C 46.320312 -33.832031 46.019531 -30.515625 45.5 -26.421875 C 44.988281 -22.328125 43.976562 -17.773438 42.46875 -12.765625 C 40.957031 -7.753906 38.847656 -2.488281 36.140625 3.03125 C 33.441406 8.5625 29.921875 13.988281 25.578125 19.3125 C 21.242188 24.644531 15.957031 29.695312 9.71875 34.46875 C 3.476562 39.238281 -3.894531 43.375 -12.40625 46.875 C -6.4375 43.695312 -1.328125 39.898438 2.921875 35.484375 C 7.171875 31.066406 10.75 26.296875 13.65625 21.171875 C 16.5625 16.046875 18.90625 10.695312 20.6875 5.125 C 22.476562 -0.4375 23.832031 -5.976562 24.75 -11.5 C 25.664062 -17.03125 26.28125 -22.378906 26.59375 -27.546875 C 26.914062 -32.722656 27.078125 -37.457031 27.078125 -41.75 L 27.078125 -162.234375 C 24.609375 -161.992188 21.601562 -161.671875 18.0625 -161.265625 C 14.53125 -160.867188 10.535156 -160.351562 6.078125 -159.71875 C 10.378906 -163.21875 14.257812 -165.878906 17.71875 -167.703125 C 21.175781 -169.535156 24.132812 -170.890625 26.59375 -171.765625 C 29.457031 -172.722656 32.003906 -173.28125 34.234375 -173.4375 C 37.015625 -173.363281 40.09375 -173.40625 43.46875 -173.5625 C 46.851562 -173.71875 50.113281 -173.9375 53.25 -174.21875 C 56.394531 -174.5 59.28125 -174.859375 61.90625 -175.296875 C 64.53125 -175.734375 66.519531 -176.1875 67.875 -176.65625 Z M 67.875 -176.65625 "/></g></g></g><path stroke-linecap="butt" transform="matrix(0.638842, 0, 0, 0.638842, 150.087489, 83.02774)" fill="none" stroke-linejoin="miter" d="M 197.504448 124.259766 C 195.706764 126.558846 193.511631 128.802895 190.912937 130.998028 C 188.717805 132.89966 185.996819 134.893012 182.756094 136.990311 C 179.509255 139.08761 175.742677 140.983128 171.450246 142.676865 C 172.844369 140.885295 172.972775 138.959204 171.823235 136.916936 C 170.673695 134.868554 168.15449 132.997494 164.259506 131.297642 C 160.370636 129.603905 155.099873 128.203667 148.465559 127.109158 C 141.825131 126.008535 133.717205 125.458223 124.129552 125.458223 C 118.540831 125.458223 112.524089 126.032993 106.085442 127.182533 C 99.646795 128.332073 93.287637 130.300966 86.99574 133.095327 C 80.709957 135.889687 74.644299 139.607349 68.80488 144.254426 C 62.965462 148.895388 57.798646 154.68589 53.304433 161.619818 C 48.816336 168.55986 45.245424 176.796192 42.597813 186.328814 C 39.956317 195.861436 38.629454 206.867671 38.629454 219.347517 C 38.629454 231.82125 40.151983 242.803026 43.197042 252.286731 C 46.2421 261.770437 50.283834 269.933394 55.328358 276.769488 C 60.366767 283.605583 66.132811 289.298252 72.620375 293.841381 C 79.107939 298.378395 85.748367 302.022682 92.535545 304.768126 C 99.322723 307.51357 105.987609 309.433546 112.524089 310.53417 C 119.066684 311.634793 124.979478 312.17899 130.268585 312.17899 C 136.358702 312.081157 142.699515 311.634793 149.284912 310.833784 C 154.977581 310.136722 161.238906 309.109474 168.081115 307.764268 C 174.91721 306.419061 181.631013 304.444053 188.21641 301.851474 C 178.537038 309.635327 169.548613 315.572579 161.263364 319.669344 C 152.978116 323.759995 145.695657 326.805053 139.40376 328.804519 C 132.115187 331.097485 125.431957 332.393774 119.34184 332.693389 C 104.562913 332.693389 90.640027 330.522715 77.560951 326.181366 C 64.487991 321.840018 53.029278 315.548121 43.197042 307.317904 C 33.364805 299.081571 25.60541 288.974179 19.912741 276.995728 C 14.226187 265.017276 11.382909 251.387889 11.382909 236.113681 C 11.382909 226.629976 12.275637 217.824988 14.073322 209.686489 C 15.871007 201.554105 18.243462 194.088209 21.190687 187.301031 C 24.131798 180.513854 27.452012 174.399279 31.145215 168.957307 C 34.838418 163.515336 38.604996 158.727624 42.451063 154.581942 C 46.291016 150.442375 50.039251 146.969297 53.677423 144.174936 C 57.321709 141.380576 60.495173 139.23436 63.191701 137.736289 C 65.78428 136.238218 69.104494 134.544481 73.146228 132.648963 C 77.187962 130.753445 81.633258 128.827354 86.469887 126.882919 C 91.31263 124.938484 96.430529 123.012393 101.823584 121.116875 C 107.210524 119.221357 112.701412 117.521505 118.290133 116.029549 C 123.878855 114.531478 129.345284 113.333021 134.689423 112.434179 C 140.027446 111.535336 145.096429 111.082858 149.884141 111.082858 C 160.566303 111.082858 169.200082 111.584253 175.791594 112.580929 C 182.376991 113.583719 187.397057 114.806634 190.839562 116.249674 C 194.282068 117.698828 196.428283 119.17244 197.278209 120.670511 C 198.128135 122.168582 198.20151 123.360924 197.504448 124.259766 Z M 197.504448 124.259766 " stroke="#ffffff" stroke-width="23.000025" stroke-opacity="1" stroke-miterlimit="4"/><g fill="#000000" fill-opacity="1"><g transform="translate(150.087489, 293.845755)"><g><path d="M 126.171875 -131.4375 C 125.023438 -129.96875 123.625 -128.53125 121.96875 -127.125 C 120.5625 -125.914062 118.820312 -124.640625 116.75 -123.296875 C 114.675781 -121.960938 112.269531 -120.753906 109.53125 -119.671875 C 110.414062 -120.816406 110.492188 -122.039062 109.765625 -123.34375 C 109.035156 -124.65625 107.425781 -125.851562 104.9375 -126.9375 C 102.445312 -128.019531 99.082031 -128.910156 94.84375 -129.609375 C 90.601562 -130.316406 85.421875 -130.671875 79.296875 -130.671875 C 75.722656 -130.671875 71.878906 -130.300781 67.765625 -129.5625 C 63.660156 -128.832031 59.597656 -127.570312 55.578125 -125.78125 C 51.554688 -124 47.679688 -121.625 43.953125 -118.65625 C 40.222656 -115.695312 36.921875 -112 34.046875 -107.5625 C 31.179688 -103.132812 28.898438 -97.875 27.203125 -91.78125 C 25.515625 -85.6875 24.671875 -78.65625 24.671875 -70.6875 C 24.671875 -62.71875 25.644531 -55.703125 27.59375 -49.640625 C 29.539062 -43.585938 32.125 -38.375 35.34375 -34 C 38.5625 -29.632812 42.242188 -26 46.390625 -23.09375 C 50.535156 -20.195312 54.773438 -17.867188 59.109375 -16.109375 C 63.453125 -14.359375 67.710938 -13.132812 71.890625 -12.4375 C 76.066406 -11.738281 79.84375 -11.390625 83.21875 -11.390625 C 87.113281 -11.453125 91.164062 -11.738281 95.375 -12.25 C 99.007812 -12.6875 103.007812 -13.335938 107.375 -14.203125 C 111.738281 -15.066406 116.023438 -16.328125 120.234375 -17.984375 C 114.054688 -13.003906 108.316406 -9.207031 103.015625 -6.59375 C 97.722656 -3.976562 93.070312 -2.035156 89.0625 -0.765625 C 84.40625 0.703125 80.128906 1.53125 76.234375 1.71875 C 66.796875 1.71875 57.898438 0.332031 49.546875 -2.4375 C 41.191406 -5.207031 33.875 -9.222656 27.59375 -14.484375 C 21.3125 -19.753906 16.351562 -26.210938 12.71875 -33.859375 C 9.082031 -41.515625 7.265625 -50.222656 7.265625 -59.984375 C 7.265625 -66.035156 7.835938 -71.660156 8.984375 -76.859375 C 10.140625 -82.054688 11.65625 -86.820312 13.53125 -91.15625 C 15.414062 -95.5 17.535156 -99.40625 19.890625 -102.875 C 22.253906 -106.351562 24.660156 -109.414062 27.109375 -112.0625 C 29.566406 -114.707031 31.957031 -116.921875 34.28125 -118.703125 C 36.613281 -120.492188 38.644531 -121.867188 40.375 -122.828125 C 42.03125 -123.785156 44.148438 -124.867188 46.734375 -126.078125 C 49.316406 -127.285156 52.148438 -128.507812 55.234375 -129.75 C 58.328125 -131 61.597656 -132.226562 65.046875 -133.4375 C 68.492188 -134.65625 72 -135.738281 75.5625 -136.6875 C 79.132812 -137.644531 82.625 -138.410156 86.03125 -138.984375 C 89.445312 -139.554688 92.6875 -139.84375 95.75 -139.84375 C 102.570312 -139.84375 108.085938 -139.523438 112.296875 -138.890625 C 116.503906 -138.253906 119.707031 -137.472656 121.90625 -136.546875 C 124.113281 -135.617188 125.488281 -134.675781 126.03125 -133.71875 C 126.570312 -132.769531 126.617188 -132.007812 126.171875 -131.4375 Z M 126.171875 -131.4375 "/></g></g></g><g clip-path="url(#75e6b9af0b)"><g clip-path="url(#21c3822315)"><path fill="#ffffff" d="M 63.976562 192.863281 L 305.605469 192.863281 L 305.605469 220.550781 L 63.976562 220.550781 Z M 63.976562 192.863281 " fill-opacity="1" fill-rule="nonzero"/></g></g><g fill="#000000" fill-opacity="1"><g transform="translate(114.104096, 214.48856)"><g><path d="M 1.921875 -1.90625 C 1.921875 -1.46875 1.882812 -1.140625 1.8125 -0.921875 C 1.738281 -0.710938 1.585938 -0.53125 1.359375 -0.375 C 1.140625 -0.226562 0.757812 -0.0625 0.21875 0.125 L 1.359375 2.234375 C 2.242188 1.941406 2.929688 1.640625 3.421875 1.328125 C 3.910156 1.015625 4.257812 0.640625 4.46875 0.203125 C 4.6875 -0.234375 4.796875 -0.796875 4.796875 -1.484375 L 4.796875 -14.875 L 1.921875 -14.875 Z M 1.921875 -1.90625 "/></g></g></g><g fill="#000000" fill-opacity="1"><g transform="translate(122.151489, 214.48856)"><g><path d="M 1.65625 -5.40625 C 1.65625 -4.34375 1.90625 -3.378906 2.40625 -2.515625 C 2.90625 -1.648438 3.613281 -0.972656 4.53125 -0.484375 C 5.445312 -0.00390625 6.507812 0.234375 7.71875 0.234375 C 8.945312 0.234375 10.023438 -0.00390625 10.953125 -0.484375 C 11.890625 -0.972656 12.613281 -1.644531 13.125 -2.5 C 13.632812 -3.351562 13.890625 -4.320312 13.890625 -5.40625 L 13.890625 -14.875 L 11.03125 -14.875 L 11.03125 -5.625 C 11.03125 -4.46875 10.734375 -3.585938 10.140625 -2.984375 C 9.546875 -2.378906 8.753906 -2.078125 7.765625 -2.078125 C 6.773438 -2.078125 5.984375 -2.367188 5.390625 -2.953125 C 4.796875 -3.546875 4.5 -4.4375 4.5 -5.625 L 4.5 -14.875 L 1.640625 -14.875 Z M 1.65625 -5.40625 "/></g></g></g><g fill="#000000" fill-opacity="1"><g transform="translate(139.295619, 214.48856)"><g><path d="M 4.6875 -14.875 L 1.859375 -14.875 L 1.859375 0 L 11.6875 0 L 11.25 -2.203125 L 4.6875 -2.203125 Z M 4.6875 -14.875 "/></g></g></g><g fill="#000000" fill-opacity="1"><g transform="translate(152.809798, 214.48856)"><g><path d="M 1.859375 -14.875 L 1.859375 0 L 4.6875 0 L 4.6875 -14.875 Z M 1.859375 -14.875 "/></g></g></g><g fill="#000000" fill-opacity="1"><g transform="translate(160.966528, 214.48856)"><g><path d="M 1.65625 -5.40625 C 1.65625 -4.34375 1.90625 -3.378906 2.40625 -2.515625 C 2.90625 -1.648438 3.613281 -0.972656 4.53125 -0.484375 C 5.445312 -0.00390625 6.507812 0.234375 7.71875 0.234375 C 8.945312 0.234375 10.023438 -0.00390625 10.953125 -0.484375 C 11.890625 -0.972656 12.613281 -1.644531 13.125 -2.5 C 13.632812 -3.351562 13.890625 -4.320312 13.890625 -5.40625 L 13.890625 -14.875 L 11.03125 -14.875 L 11.03125 -5.625 C 11.03125 -4.46875 10.734375 -3.585938 10.140625 -2.984375 C 9.546875 -2.378906 8.753906 -2.078125 7.765625 -2.078125 C 6.773438 -2.078125 5.984375 -2.367188 5.390625 -2.953125 C 4.796875 -3.546875 4.5 -4.4375 4.5 -5.625 L 4.5 -14.875 L 1.640625 -14.875 Z M 1.65625 -5.40625 "/></g></g></g><g fill="#000000" fill-opacity="1"><g transform="translate(178.110657, 214.48856)"><g><path d="M 1.03125 -0.984375 C 1.519531 -0.679688 2.21875 -0.394531 3.125 -0.125 C 4.039062 0.144531 4.804688 0.28125 5.421875 0.28125 C 6.585938 0.28125 7.585938 0.109375 8.421875 -0.234375 C 9.265625 -0.585938 9.898438 -1.070312 10.328125 -1.6875 C 10.765625 -2.300781 10.984375 -3.007812 10.984375 -3.8125 C 10.984375 -4.519531 10.8125 -5.140625 10.46875 -5.671875 C 10.125 -6.203125 9.695312 -6.65625 9.1875 -7.03125 C 8.675781 -7.40625 7.988281 -7.835938 7.125 -8.328125 L 6.5 -8.703125 L 5.796875 -9.09375 C 5.054688 -9.53125 4.519531 -9.890625 4.1875 -10.171875 C 3.863281 -10.460938 3.703125 -10.820312 3.703125 -11.25 C 3.703125 -11.738281 3.90625 -12.109375 4.3125 -12.359375 C 4.726562 -12.617188 5.265625 -12.75 5.921875 -12.75 C 6.492188 -12.75 7.023438 -12.664062 7.515625 -12.5 C 8.003906 -12.34375 8.546875 -12.117188 9.140625 -11.828125 L 10.078125 -14.109375 C 8.535156 -14.847656 7.140625 -15.21875 5.890625 -15.21875 C 4.816406 -15.21875 3.894531 -15.046875 3.125 -14.703125 C 2.363281 -14.367188 1.78125 -13.894531 1.375 -13.28125 C 0.96875 -12.675781 0.765625 -12 0.765625 -11.25 C 0.765625 -10.53125 0.972656 -9.878906 1.390625 -9.296875 C 1.804688 -8.722656 2.300781 -8.222656 2.875 -7.796875 C 3.445312 -7.378906 4.222656 -6.878906 5.203125 -6.296875 L 5.859375 -5.90625 C 6.609375 -5.5 7.160156 -5.144531 7.515625 -4.84375 C 7.867188 -4.539062 8.046875 -4.207031 8.046875 -3.84375 C 8.046875 -3.320312 7.816406 -2.921875 7.359375 -2.640625 C 6.910156 -2.367188 6.25 -2.234375 5.375 -2.234375 C 4.8125 -2.234375 4.1875 -2.335938 3.5 -2.546875 C 2.8125 -2.753906 2.195312 -3 1.65625 -3.28125 Z M 1.03125 -0.984375 "/></g></g></g><g fill="#000000" fill-opacity="1"><g transform="translate(191.253097, 214.48856)"><g/></g></g><g fill="#000000" fill-opacity="1"><g transform="translate(197.791656, 214.48856)"><g><path d="M 11.875 -14.21875 C 11.289062 -14.539062 10.617188 -14.78125 9.859375 -14.9375 C 9.109375 -15.101562 8.46875 -15.1875 7.9375 -15.1875 C 6.507812 -15.1875 5.25 -14.851562 4.15625 -14.1875 C 3.070312 -13.519531 2.234375 -12.59375 1.640625 -11.40625 C 1.054688 -10.226562 0.765625 -8.882812 0.765625 -7.375 C 0.765625 -5.914062 1.035156 -4.601562 1.578125 -3.4375 C 2.117188 -2.28125 2.921875 -1.363281 3.984375 -0.6875 C 5.046875 -0.0195312 6.328125 0.3125 7.828125 0.3125 C 8.472656 0.3125 9.191406 0.222656 9.984375 0.046875 C 10.773438 -0.128906 11.453125 -0.363281 12.015625 -0.65625 L 10.9375 -2.75 C 9.84375 -2.300781 8.753906 -2.078125 7.671875 -2.078125 C 6.859375 -2.078125 6.148438 -2.3125 5.546875 -2.78125 C 4.953125 -3.257812 4.5 -3.898438 4.1875 -4.703125 C 3.875 -5.515625 3.71875 -6.410156 3.71875 -7.390625 C 3.71875 -8.484375 3.894531 -9.4375 4.25 -10.25 C 4.613281 -11.070312 5.109375 -11.703125 5.734375 -12.140625 C 6.359375 -12.578125 7.066406 -12.796875 7.859375 -12.796875 C 8.347656 -12.796875 8.757812 -12.757812 9.09375 -12.6875 C 9.4375 -12.625 9.890625 -12.507812 10.453125 -12.34375 L 11 -12.1875 Z M 11.875 -14.21875 "/></g></g></g><g fill="#000000" fill-opacity="1"><g transform="translate(211.743182, 214.48856)"><g><path d="M 10.546875 -14.875 L 10.546875 -8.578125 L 4.6875 -8.578125 L 4.6875 -14.984375 L 1.859375 -14.875 L 1.859375 0 L 4.6875 0 L 4.6875 -6.296875 L 10.546875 -6.296875 L 10.546875 0 L 13.359375 0 L 13.359375 -14.875 Z M 10.546875 -14.875 "/></g></g></g><g fill="#000000" fill-opacity="1"><g transform="translate(228.58117, 214.48856)"><g><path d="M 3.0625 0 L 4.375 -3.5 L 10.015625 -3.5 L 11.359375 0.21875 L 14.203125 -0.171875 L 8.421875 -14.875 L 6.015625 -14.875 L 0.21875 0 Z M 7.15625 -10.984375 L 9.140625 -5.796875 L 5.203125 -5.796875 Z M 7.15625 -10.984375 "/></g></g></g><g fill="#000000" fill-opacity="1"><g transform="translate(244.610073, 214.48856)"><g><path d="M 11.578125 0 L 14.421875 0 L 14.421875 -14.875 L 11.578125 -14.875 L 11.578125 -4.9375 L 4.6875 -14.875 L 1.859375 -14.875 L 1.859375 0 L 4.6875 0 L 4.6875 -9.953125 Z M 11.578125 0 "/></g></g></g></svg>