<svg xmlns="http://www.w3.org/2000/svg" width="500" height="500" viewBox="0 0 500 500" version="1.1"><path d="" stroke="none" fill="#080404" fill-rule="evenodd"/><path d="M 63.557 13.223 C 61.241 16.528, 61.241 63.472, 63.557 66.777 L 65.113 69 125.557 69 L 186 69 186 41.200 C 186 20.911, 185.676 13.076, 184.800 12.200 C 183.894 11.294, 169.101 11, 124.357 11 L 65.113 11 63.557 13.223 M 328.986 103.250 C 328.967 116.417, 328.727 117, 323.323 117 L 318.879 117 319.190 120.750 L 319.500 124.500 325.253 124.475 C 330.175 124.453, 331.402 124.053, 333.753 121.702 C 336.408 119.047, 336.512 118.539, 336.853 106.478 L 337.206 94 333.103 94 L 329 94 328.986 103.250 M 342.006 103.250 C 342.015 118.605, 344.384 123.335, 352.688 124.580 C 358.165 125.402, 363.533 123.505, 366.328 119.763 C 368.031 117.481, 368.444 115.107, 368.813 105.450 L 369.257 93.872 364.878 94.186 L 360.500 94.500 360 105.500 L 359.500 116.500 355.545 116.500 C 350.704 116.500, 350.243 115.337, 350.100 102.750 L 350 94 346 94 L 342 94 342.006 103.250 M 374 109 L 374 124 384 124 L 394 124 394 120.500 L 394 117 388 117 L 382 117 382 105.500 L 382 94 378 94 L 374 94 374 109 M 399 109 L 399 124 403 124 L 407 124 407 109 L 407 94 403 94 L 399 94 399 109 M 413 105.865 C 413 116.247, 413.252 118.051, 415.016 120.293 C 417.648 123.639, 423.064 125.373, 428.325 124.556 C 436.704 123.254, 439 118.839, 439 104.032 L 439 94 435 94 L 431 94 431 103.809 C 431 115.375, 430.098 117.318, 424.956 116.829 L 421.500 116.500 421.217 105.250 L 420.934 94 416.967 94 L 413 94 413 105.865 M 446.455 96.455 C 443.530 99.379, 442.998 106.855, 445.534 109.391 C 446.987 110.844, 453.049 112.982, 455.750 112.994 C 456.438 112.997, 457 113.952, 457 115.116 C 457 117.097, 456.583 117.206, 450.500 116.819 L 444 116.405 444 120.078 C 444 123.391, 444.306 123.811, 447.125 124.375 C 454.413 125.833, 461.099 124.551, 463.637 121.211 C 465.473 118.793, 465.361 110.504, 463.466 108.609 C 461.995 107.138, 455.940 105.017, 453.177 105.006 C 452.449 105.003, 452.011 104.213, 452.204 103.250 C 452.485 101.844, 453.582 101.508, 457.777 101.543 L 463 101.585 463 97.793 L 463 94 455.955 94 C 449.808 94, 448.596 94.313, 446.455 96.455 M 121.992 186.250 C 121.988 221.844, 121.573 249.037, 120.979 252.699 C 118.795 266.155, 112.753 275.026, 102.249 280.200 L 95.550 283.500 68.525 284 C 53.661 284.275, 40.938 284.864, 40.250 285.309 C 39.298 285.925, 39 292.990, 39 314.988 C 39 340.697, 39.184 344.041, 40.681 345.538 C 42.201 347.058, 45.053 347.170, 70.431 346.712 C 99.880 346.181, 105.661 345.442, 121.783 340.149 C 130.436 337.309, 144.289 329.921, 152.360 323.842 C 166.414 313.258, 177.346 296.208, 182.714 276.500 L 185.438 266.500 185.769 196.250 L 186.100 126 154.050 126 L 122 126 121.992 186.250 M 388.500 159.092 C 352.890 161.108, 320.131 168.909, 295.500 181.239 C 246.825 205.604, 220.687 251.244, 218.321 316 C 216.997 352.254, 222.566 383.186, 235.006 408.672 C 257.205 454.153, 298.945 480.805, 364.261 491.203 C 376.028 493.076, 382.727 493.353, 424.500 493.688 C 454.667 493.930, 472.037 493.709, 473 493.070 C 474.277 492.222, 474.500 487.656, 474.500 462.287 L 474.500 432.500 424 431.925 C 368.166 431.289, 364.313 430.925, 345.758 424.536 C 311.859 412.862, 291.119 387.817, 285.610 351.901 C 276.933 295.337, 294.338 252.908, 334.376 233.016 C 351.456 224.530, 373.478 220.008, 397.750 220.003 L 410 220 410 257 L 410 294 442.500 294 L 475 294 475 228 C 475 163.333, 474.960 161.960, 473 160 C 471.072 158.072, 469.772 158.005, 436.750 158.150 C 417.913 158.232, 396.200 158.656, 388.500 159.092 M 51.500 360.945 C 44.882 363.654, 42.327 375.237, 46.153 385.180 C 48.050 390.108, 56.665 392.407, 63.851 389.902 C 66.533 388.967, 67 388.310, 67 385.474 L 67 382.145 61.519 382.710 C 54.223 383.463, 53 382.367, 53 375.078 C 53 371.955, 53.540 368.860, 54.200 368.200 C 54.860 367.540, 57.785 367, 60.700 367 L 66 367 66 363.500 L 66 360 59.750 360.063 C 56.313 360.098, 52.600 360.495, 51.500 360.945 M 73 375 L 73 390 77 390 L 81 390 81 384.500 L 81 379 86 379 L 91 379 91 384.500 L 91 390 95 390 L 99 390 99 375 L 99 360 95 360 L 91 360 91 365.500 L 91 371 86 371 L 81 371 81 365.500 L 81 360 77 360 L 73 360 73 375 M 111.523 370.250 C 109.441 375.887, 106.904 382.637, 105.884 385.250 L 104.029 390 108.406 390 C 112.241 390, 112.861 389.690, 113.411 387.500 C 113.975 385.250, 114.538 385, 119.044 385 C 123.463 385, 124.161 385.293, 125 387.500 C 125.802 389.610, 126.595 390, 130.082 390 C 132.965 390, 134.076 389.622, 133.757 388.750 C 133.506 388.063, 131.095 381.317, 128.400 373.760 L 123.500 360.020 119.404 360.010 L 115.307 360 111.523 370.250 M 140 375 L 140 390 143.458 390 L 146.916 390 147.208 382.250 L 147.500 374.500 152.780 382.250 C 157.876 389.728, 158.200 390, 162.030 390 L 166 390 166 375 L 166 360 162 360 L 158 360 158 368.241 L 158 376.482 152.483 368.241 C 147.336 360.553, 146.731 360, 143.483 360 L 140 360 140 375 M 118.701 371 C 115.896 379.010, 115.896 379, 119.052 379 C 122.319 379, 122.504 378.252, 120.537 373 C 119.671 370.686, 119.049 370.008, 118.701 371" stroke="none" fill="#040404" fill-rule="evenodd"/></svg>